<svg width="104" height="20" fill="none" xmlns="http://www.w3.org/2000/svg"><path d="M0 16.582L3.267.202h3.809l3.247 16.38H7.138l-.603-3.6H3.87l-.645 3.6H0zm4.183-5.642h2.019l-1.02-6.612-.999 6.612zm7.848 5.642V.202h4.266c.736 0 1.416.06 2.04.182a4.534 4.534 0 011.644.647c.486.31.853.742 1.103 1.295.264.539.396 1.247.396 2.123 0 .66-.098 1.227-.292 1.699a2.592 2.592 0 01-.832 1.092c-.36.27-.805.451-1.332.546.652.094 1.2.31 1.644.647.444.337.777.782.999 1.334.222.553.333 1.22.333 2.003 0 .822-.111 1.536-.333 2.143-.208.607-.52 1.105-.937 1.496a4.09 4.09 0 01-1.54.89c-.61.189-1.318.283-2.123.283h-5.036zm3.434-2.345h.957c.86 0 1.45-.21 1.77-.627.332-.418.499-1.045.499-1.881 0-.647-.076-1.16-.23-1.537a1.536 1.536 0 00-.748-.85c-.333-.188-.784-.282-1.353-.282h-.895v5.177zm0-7.422h.853c.597 0 1.048-.08 1.353-.243a1.34 1.34 0 00.624-.768c.125-.35.188-.775.188-1.274s-.09-.897-.27-1.193a1.425 1.425 0 00-.792-.668c-.346-.134-.79-.202-1.332-.202h-.624v4.348zm10.098 9.767V2.69h-2.601V.202h8.616V2.69h-2.56v13.892h-3.455zm12.247.223c-1.234 0-2.212-.216-2.934-.647a3.68 3.68 0 01-1.56-1.84c-.306-.81-.459-1.773-.459-2.892V5.319c0-1.12.153-2.077.458-2.872a3.58 3.58 0 011.561-1.82C35.598.209 36.576 0 37.811 0c1.248 0 2.233.216 2.955.647a3.456 3.456 0 011.56 1.82c.32.782.48 1.733.48 2.852v6.107c0 1.119-.16 2.083-.48 2.892a3.55 3.55 0 01-1.56 1.84c-.722.431-1.707.647-2.955.647zm0-2.407c.445 0 .77-.094.979-.283a1.51 1.51 0 00.416-.788c.07-.338.104-.695.104-1.072V4.51c0-.378-.035-.728-.104-1.052-.07-.324-.208-.58-.416-.768-.208-.203-.534-.304-.978-.304-.417 0-.729.101-.937.304-.208.188-.347.444-.416.768a5.02 5.02 0 00-.104 1.052v7.745c0 .377.028.734.083 1.072.07.323.208.586.416.788.208.189.527.283.958.283zM54.86 20l-.417-3.418H45.14V.202h3.434v14.116h3.247V.202h3.434v14.116h2.143V20H54.86zm4.221-3.418V.202h7.347v2.306h-3.913v4.347h3.018v2.326h-3.018v5.137h3.954v2.264h-7.388zm9.168 0V.202h3.433v6.734h2.977V.202h3.433v16.38H74.66v-7.26h-2.977v7.26H68.25zm14.018 0V2.69h-2.601V.202h8.616V2.69h-2.56v13.892h-3.454zm7.544 0V.202h5.349c1.013 0 1.838.189 2.477.566a3.3 3.3 0 011.415 1.598c.319.701.478 1.55.478 2.548 0 1.173-.208 2.09-.624 2.75a3.37 3.37 0 01-1.665 1.416c-.707.27-1.52.404-2.435.404h-1.56v7.098H89.81zm3.434-9.443h1.207c.5 0 .881-.075 1.145-.223.278-.162.465-.411.562-.748.097-.337.146-.769.146-1.294 0-.5-.042-.917-.125-1.254-.07-.337-.236-.6-.5-.789-.263-.189-.68-.283-1.248-.283h-1.187v4.59zm7.758 9.443V13.61H104v2.972h-2.997z" fill="#2C2C2C"/></svg>