<svg width="50" height="28" fill="none" xmlns="http://www.w3.org/2000/svg"><path d="M-42.295 14.197V7.59l-.988-2.655 1.358.37 1.297 2.285 4.63.493 3.52-.493S-18.218.738-3.957.738c7.47 0 11.54.407 15.348 1.74 1.951.686 3.834 1.606 6.076 2.84v.006c1.927 1.062 4.112 2.359 6.829 3.921l.592.34c.198.117.402.228.605.345.309.18 8.89.124 15.373 1.173 6.483 1.05 10.619 3.643 10.619 3.643l.864 2.1.803.74-.617 6.05 1.666 2.1H43.157v-5.55a8.157 8.157 0 00-8.156-8.156 8.152 8.152 0 00-8.155 8.155v5.55h-38.582v-5.55a8.156 8.156 0 00-16.311 0v4.402l-15.923-2.611v-6.298l1.675-1.481zm63.202 7.964c.488 0 .92-.315 1.081-.778l1.803-5.402a.657.657 0 00-.413-.828.581.581 0 00-.204-.03h-1.075l-1.976 7.038h.784zM-2.967 10.245l21.547.865V8.702S11.171 3.331 4.133 3.331h-8.335l1.235 6.914zm-17.164-.37h12.78V3.331c-5.123 0-14.076 3.89-14.076 3.89l1.296 2.654z" fill="#2C2C2C"/><path d="M38.01 20.191l.636.012v-.018a3.72 3.72 0 00-.272-1.39l-1.254.52a2.3 2.3 0 01.173.864v.012h.717zm-.896.87c-.117.278-.284.53-.494.74l.957.964c.34-.34.605-.741.79-1.18l-1.253-.524zm-.494-2.488l.962-.957a3.646 3.646 0 00-1.179-.797l-.525 1.254c.279.117.531.29.742.5zm-1.617 3.896v1.358a3.58 3.58 0 001.39-.278l-.52-1.253a2.226 2.226 0 01-.87.173zm-1.544-2.284a1.544 1.544 0 103.087 0 1.544 1.544 0 00-3.087 0zm1.544-2.285h.006v-1.358h-.006a3.66 3.66 0 00-1.383.272l.519 1.26c.271-.119.568-.174.864-.174zm-1.618 3.902l-.963.957c.34.34.74.605 1.179.79l.519-1.253a2.44 2.44 0 01-.735-.494zm-.95-4.204c-.34.334-.611.735-.797 1.18l1.254.525c.117-.278.284-.525.5-.741l-.957-.964zm.283 2.574h-1.359v.013c0 .475.093.95.278 1.395l1.254-.52a2.238 2.238 0 01-.173-.87v-.018z" fill="#2C2C2C"/><path d="M35.003 12.776a7.406 7.406 0 017.408 7.408 7.406 7.406 0 01-7.408 7.409 7.406 7.406 0 01-7.409-7.409 7.406 7.406 0 017.409-7.408zm0 11.483a4.07 4.07 0 004.075-4.075 4.07 4.07 0 00-4.075-4.075 4.07 4.07 0 00-4.075 4.075 4.07 4.07 0 004.075 4.075z" fill="#2C2C2C"/><path d="M38.01 20.191l.636.012v-.018a3.72 3.72 0 00-.272-1.39l-1.254.52a2.3 2.3 0 01.173.864v.012h.717zm-.896.87c-.117.278-.284.53-.494.74l.957.964c.34-.34.605-.741.79-1.18l-1.253-.524zm-.494-2.488l.962-.957a3.646 3.646 0 00-1.179-.797l-.525 1.254c.279.117.531.29.742.5zm-1.617 3.896v1.358a3.58 3.58 0 001.39-.278l-.52-1.253a2.226 2.226 0 01-.87.173zm-1.544-2.284a1.544 1.544 0 103.087 0 1.544 1.544 0 00-3.087 0zm1.544-2.285h.006v-1.358h-.006a3.66 3.66 0 00-1.383.272l.519 1.26c.271-.119.568-.174.864-.174zm-1.618 3.902l-.963.957c.34.34.74.605 1.179.79l.519-1.253a2.44 2.44 0 01-.735-.494zm-.488-2.5c.118-.278.284-.525.5-.74l-.957-.964c-.34.334-.61.735-.796 1.18l1.253.524zm-1.537.87v.013c0 .475.093.95.279 1.395l1.253-.52a2.236 2.236 0 01-.173-.87v-.012H31.36v-.006z" fill="#2C2C2C"/><path d="M33.459 20.185a1.544 1.544 0 103.087 0 1.544 1.544 0 00-3.087 0zm1.544 2.284c.296 0 .593-.056.87-.173l.52 1.253a3.695 3.695 0 01-1.39.278V22.47zm-1.618-.667c.21.21.464.383.741.494l-.519 1.254a3.708 3.708 0 01-1.179-.79l.957-.958zm3.729-.741l1.253.524a3.69 3.69 0 01-.79 1.18l-.957-.963c.21-.21.377-.463.494-.741zm-4.395-.876c0 .303.055.599.172.87l-1.253.52a3.607 3.607 0 01-.278-1.396v-.012h1.359v.018zm5.655-1.383c.18.438.272.914.272 1.39v.018l-.636-.012-.723-.001v-.012a2.21 2.21 0 00-.172-.865l1.26-.518zm-5.94-1.204l.958.963c-.216.21-.383.463-.5.74l-1.254-.524a3.82 3.82 0 01.797-1.179zm3.97-.772c.44.186.84.457 1.18.797l-.963.957a2.345 2.345 0 00-.74-.5l.524-1.254zm-1.401-.284h.006V17.9h-.006c-.296 0-.593.056-.864.173l-.52-1.26a3.66 3.66 0 011.384-.271zm-51.881 3.649l.636.012v-.018a3.72 3.72 0 00-.272-1.39l-1.253.52a2.3 2.3 0 01.172.864v.012h.717zm-.895.87c-.117.278-.284.53-.5.74l.957.964c.34-.34.605-.741.79-1.18l-1.247-.524zm-.493-2.488l.963-.957a3.647 3.647 0 00-1.18-.797l-.524 1.254c.278.117.531.29.741.5zm-1.618 3.896l-.006 1.358h.006a3.58 3.58 0 001.39-.278l-.52-1.253a2.228 2.228 0 01-.87.173zm-1.544-2.284a1.543 1.543 0 103.087 0 1.543 1.543 0 00-3.087 0zm1.544-2.285h.012v-1.358h-.012a3.66 3.66 0 00-1.383.272l.512 1.26a2.21 2.21 0 01.871-.174zm-1.618 3.902l-.963.957c.34.34.74.605 1.18.79l.518-1.253a2.443 2.443 0 01-.735-.494zm-.95-4.204a3.58 3.58 0 00-.796 1.18l1.253.525c.117-.278.284-.525.5-.741l-.957-.964zm.284 2.574h-1.358v.013c0 .475.093.95.278 1.395l1.254-.52a2.238 2.238 0 01-.173-.87v-.018z" fill="#2C2C2C"/><path d="M-19.884 12.776a7.406 7.406 0 017.409 7.408 7.406 7.406 0 01-7.41 7.409 7.406 7.406 0 01-7.408-7.409 7.406 7.406 0 017.409-7.408zm0 11.483a4.07 4.07 0 004.075-4.075 4.07 4.07 0 00-4.075-4.075 4.07 4.07 0 00-4.075 4.075 4.07 4.07 0 004.075 4.075z" fill="#2C2C2C"/><path d="M-16.878 20.191l.636.012v-.018a3.72 3.72 0 00-.272-1.39l-1.253.52a2.3 2.3 0 01.172.864v.012h.717zm-.895.87c-.117.278-.284.53-.5.74l.957.964c.34-.34.605-.741.79-1.18l-1.247-.524zm-.493-2.488l.963-.957a3.647 3.647 0 00-1.18-.797l-.524 1.254c.278.117.531.29.741.5zm-1.618 3.896l-.006 1.358h.006a3.58 3.58 0 001.39-.278l-.52-1.253a2.228 2.228 0 01-.87.173zm-1.544-2.284a1.543 1.543 0 103.087 0 1.543 1.543 0 00-3.087 0zm1.544-2.285h.012v-1.358h-.012a3.66 3.66 0 00-1.383.272l.512 1.26a2.21 2.21 0 01.871-.174zm-1.618 3.902l-.963.957c.34.34.74.605 1.18.79l.518-1.253a2.443 2.443 0 01-.735-.494zm-.488-2.5c.118-.278.284-.525.5-.74l-.957-.964c-.34.334-.61.735-.796 1.18l1.254.524zm-1.536.87v.013c0 .475.093.95.278 1.395l1.254-.52a2.238 2.238 0 01-.173-.87v-.012h-1.36l.001-.006z" fill="#2C2C2C"/><path d="M-21.428 20.185a1.543 1.543 0 103.087 0 1.543 1.543 0 00-3.087 0zm1.544 2.284c.296 0 .592-.056.87-.173l.52 1.253a3.694 3.694 0 01-1.39.278h-.006l.006-1.358zm-1.618-.667c.21.21.464.383.741.494l-.519 1.254a3.708 3.708 0 01-1.179-.79l.957-.958zm3.73-.741l1.253.525a3.69 3.69 0 01-.79 1.18l-.957-.963c.21-.21.376-.464.493-.742zm-4.396-.889v.013c0 .303.055.599.172.87l-1.253.52a3.606 3.606 0 01-.278-1.396v-.012h1.359v.005zm5.655-1.37c.18.438.272.914.272 1.39v.018l-.636-.012h-.722v-.013a2.19 2.19 0 00-.173-.864l1.26-.519zm-5.939-1.204l.957.963c-.216.21-.383.463-.5.74l-1.253-.524c.19-.438.456-.839.796-1.179zm3.97-.772c.438.186.839.457 1.179.797l-.963.957a2.343 2.343 0 00-.741-.5l.524-1.254zm-1.402-.284h.012V17.9h-.012c-.296 0-.593.056-.87.173l-.513-1.26a3.66 3.66 0 011.383-.271z" fill="#2C2C2C"/></svg>