<svg width="100" height="17" fill="none" xmlns="http://www.w3.org/2000/svg"><g clip-path="url(#clip0_11_453)"><path fill-rule="evenodd" clip-rule="evenodd" d="M7.995 1.004c.127 0 .243.072.3.186l1.98 4.012 4.426.641a.333.333 0 01.184.569l-3.207 3.122.756 4.41a.333.333 0 01-.484.35L8 12.213l-3.96 2.082a.333.333 0 01-.483-.352l.756-4.409-3.207-3.122a.333.333 0 01.184-.569l4.427-.641 1.98-4.012a.333.333 0 01.298-.186z" fill="#FEC110" stroke="#FEC110" stroke-linecap="round" stroke-linejoin="round"/></g><g clip-path="url(#clip1_11_453)"><path fill-rule="evenodd" clip-rule="evenodd" d="M28.995 1.004c.127 0 .243.072.3.186l1.98 4.012 4.426.641a.333.333 0 01.184.569l-3.207 3.122.756 4.41a.333.333 0 01-.484.35L29 12.213l-3.96 2.082a.333.333 0 01-.483-.352l.756-4.409-3.207-3.122a.333.333 0 01.184-.569l4.427-.641 1.98-4.012a.333.333 0 01.298-.186z" fill="#FEC110" stroke="#FEC110" stroke-linecap="round" stroke-linejoin="round"/></g><g clip-path="url(#clip2_11_453)"><path fill-rule="evenodd" clip-rule="evenodd" d="M49.995 1.004c.127 0 .243.072.3.186l1.98 4.012 4.426.641a.333.333 0 01.184.569l-3.207 3.122.756 4.41a.333.333 0 01-.484.35L50 12.213l-3.96 2.082a.333.333 0 01-.483-.352l.756-4.409-3.207-3.122a.333.333 0 01.184-.569l4.427-.641 1.98-4.012a.333.333 0 01.298-.186z" fill="#FEC110" stroke="#FEC110" stroke-linecap="round" stroke-linejoin="round"/></g><g clip-path="url(#clip3_11_453)"><path fill-rule="evenodd" clip-rule="evenodd" d="M70.995 1.004c.127 0 .243.072.3.186l1.98 4.012 4.426.641a.333.333 0 01.184.569l-3.207 3.122.756 4.41a.333.333 0 01-.484.35L71 12.213l-3.96 2.082a.333.333 0 01-.483-.352l.756-4.409-3.207-3.122a.333.333 0 01.184-.569l4.427-.641 1.98-4.012a.333.333 0 01.298-.186z" fill="#FEC110" stroke="#FEC110" stroke-linecap="round" stroke-linejoin="round"/></g><g clip-path="url(#clip4_11_453)"><path d="M92 11.836L87.885 14l.786-4.582-3.333-3.245 4.6-.667 2.057-4.168 2.058 4.168 4.6.667-3.334 3.245.786 4.582L92 11.836z" stroke="#989898" stroke-width="1.5" stroke-linecap="round" stroke-linejoin="round"/></g><defs><clipPath id="clip0_11_453"><path fill="#fff" transform="translate(0 .003)" d="M0 0h16v16H0z"/></clipPath><clipPath id="clip1_11_453"><path fill="#fff" transform="translate(21 .003)" d="M0 0h16v16H0z"/></clipPath><clipPath id="clip2_11_453"><path fill="#fff" transform="translate(42 .003)" d="M0 0h16v16H0z"/></clipPath><clipPath id="clip3_11_453"><path fill="#fff" transform="translate(63 .003)" d="M0 0h16v16H0z"/></clipPath><clipPath id="clip4_11_453"><path fill="#fff" transform="translate(84 .003)" d="M0 0h16v16H0z"/></clipPath></defs></svg>